# xmcd CD database file
#
# Track frame offsets:
#	150
#	32813
#	55501
#	75775
#	93001
#	112568
#	124445
#	142870
#	159623
#	185487
#	199955
#
# Disc length: 3047 seconds
#
# Revision: 0
# Processed by: cddbd v1.5.1PL0 Copyright (c) Steve Scherf et al.
# Submitted via: ACXtractor (MTCDDB.DLL V2003.12.21)
#
DISCID=7e0be50b
DTITLE=Air - Moon Safari
DYEAR=2000
DGENRE=Club
TTITLE0=La Femme D'Argent
TTITLE1=Sexy Boy
TTITLE2=All I Need
TTITLE3=Kelly Watch The Stars
TTITLE4=Talisman
TTITLE5=Remember
TTITLE6=You Make It Easy
TTITLE7=Le Matin-La
TTITLE8=New Star In The Sky
TTITLE9=Le Voyage De Penelope
TTITLE10=10,000 Hz Legend
EXTD=ID3G: 112 YEAR: 2000
EXTT0=
EXTT1=
EXTT2=
EXTT3=
EXTT4=
EXTT5=
EXTT6=
EXTT7=
EXTT8=
EXTT9=
EXTT10=
PLAYORDER=
